# xmcd
# 
# Track frame offsets:
#     150
#     21387
#     39567
#     59487
#     102502
#     129705
#     149920
#     170575
#     189747
#     202430
#     219587
# 
# Disc length: 4104
# 
# Revision: 11
# Processed by: cddbd v1.5.2PL0 Copyright (c) Steve Scherf et al.
# Submitted via: fre:ac v1.0.31
# 
DISCID=bf10060b
DTITLE=Sonic Youth - Washing Machine
DYEAR=1995
DGENRE=Alternative
TTITLE0=Becuz
TTITLE1=Junkie's Promise
TTITLE2=Saucer-Like
TTITLE3=Washing Machine
TTITLE4=Unwind
TTITLE5=Little Trouble Girl
TTITLE6=No Queen Blues
TTITLE7=Panty Lies
TTITLE8=Thumb
TTITLE9=Skip Tracer
TTITLE10=The Diamond Sea
EXTD=
EXTT0=
EXTT1=
EXTT2=
EXTT3=
EXTT4=
EXTT5=
EXTT6=
EXTT7=
EXTT8=
EXTT9=
EXTT10=
PLAYORDER=
